<svg xmlns="http://www.w3.org/2000/svg" viewBox="0 0 169.01 246.76"><defs><style>.cls-1{fill:#fff;stroke:#000;stroke-width:2.5px;}.cls-2{isolation:isolate;font-size:45.45px;font-family:Arial-BoldMT, Arial;font-weight:700;}.cls-2,.cls-3{fill:#e6180a;}</style></defs><title>3h</title><g id="Calque_2" data-name="Calque 2"><g id="Calque_1-2" data-name="Calque 1"><g id="_3_heart" data-name="3_heart"><g id="base"><path class="cls-1" d="M1.25,238a6.89,6.89,0,0,0,6.87,6.87H160.91a6.88,6.88,0,0,0,6.86-6.87V9.72a6.88,6.88,0,0,0-6.86-6.87H8.12A6.89,6.89,0,0,0,1.25,9.72Z"/></g><g id="n_3" data-name="n 3"><text class="cls-2" transform="translate(5.25 38.99) scale(0.53 1)">3</text></g><g id="n_3-2" data-name="n 3"><text class="cls-2" transform="translate(164.76 207.77) rotate(180) scale(0.53 1)">3</text></g><g id="heart"><path class="cls-3" d="M22.56,49.06c0,4.71-5.91,8.14-7.64,11.87-1.75-3.72-7.66-7.12-7.7-11.83a3.92,3.92,0,0,1,3.82-4,3.93,3.93,0,0,1,3.85,4,3.92,3.92,0,0,1,3.82-4A3.93,3.93,0,0,1,22.56,49.06Z"/></g><g id="heart-2" data-name="heart"><path class="cls-3" d="M147.45,197.7c0-4.71,5.91-8.14,7.64-11.87,1.75,3.72,7.66,7.12,7.7,11.83a3.84,3.84,0,1,1-7.67,0,3.84,3.84,0,1,1-7.67,0Z"/></g><g id="heart-3" data-name="heart"><path class="cls-3" d="M66.6,212.44c0-11.3,14.18-19.53,18.33-28.48,4.2,8.92,18.38,17.08,18.47,28.38a9.21,9.21,0,1,1-18.4,0,9.21,9.21,0,1,1-18.4,0Z"/></g><g id="heart-4" data-name="heart"><path class="cls-3" d="M103.41,107.09c0,11.3-14.18,19.53-18.33,28.48-4.2-8.92-18.38-17.08-18.47-28.38a9.21,9.21,0,1,1,18.4,0,9.21,9.21,0,1,1,18.4,0Z"/></g><g id="heart-5" data-name="heart"><path class="cls-3" d="M103.41,30.17c0,11.3-14.18,19.53-18.33,28.48C80.88,49.73,66.7,41.57,66.6,30.27a9.21,9.21,0,1,1,18.4,0,9.21,9.21,0,1,1,18.4,0Z"/></g></g></g></g></svg>