<svg xmlns="http://www.w3.org/2000/svg" viewBox="0 0 169.01 244.55"><defs><style>.cls-1{fill:#fff;stroke:#000;stroke-width:2.5px;}.cls-2,.cls-8{fill:#e6180a;}.cls-3{fill:#ff009c;}.cls-4{fill:#00ff0a;}.cls-5{fill:#ff9e00;}.cls-6{fill:#0072ff;}.cls-7{fill:#ff0;}.cls-8{isolation:isolate;font-size:25.75px;font-family:Arial-BoldMT, Arial;font-weight:700;}</style></defs><title>j2</title><g id="Calque_2" data-name="Calque 2"><g id="Calque_1-2" data-name="Calque 1"><g id="base"><path class="cls-1" d="M1.25,236.43a6.89,6.89,0,0,0,6.87,6.87H160.91a6.88,6.88,0,0,0,6.86-6.87V8.12a6.88,6.88,0,0,0-6.86-6.87H8.12A6.89,6.89,0,0,0,1.25,8.12Z"/></g><g id="red_joker" data-name="red joker"><g id="Full_joker" data-name="Full joker"><g id="joker"><path class="cls-2" d="M102.05,200.52l-.75,1.45.77,5,2-.35,4-2.7-4.44-4.22"/><path class="cls-2" d="M117.33,67c.28.11-6.41,6.42-7.26,6.42l-5.68,3.16-3.38,5-2.54,5.63-.16,6.24,2.37,3.36,5,1,6.29-1.1,6.9-4.39,3.49-4.53,1.32-4.42-.47-2.95-3.13-1.51-2.67-.25-.19-1.13.48-2.7L115.44,73l-4.18.28L118,67.15l7,1.78,3.32-.6,9.45,11.6-5.06,7-.78,3,1.05,4.24,1.58,4.35-.77,4.7-1.19,1.68.14,3.72-.74,1.89-2.56,1.09-2.38-1L125.67,108l.74-3,2-1.12,1.79,0,.32-.53-1.4-3.61-3.19-2.35-2.6-.14L117,101.52l-.7,3.68-.07,6.17,6.1,4,2.77,4.45L126,125l.7,6.45,5.78,14.37,2,3.65-.77.63L129,147.94l-4.28-4.42-.25-3.36.81-2.63-1.12-2-1.89,0-1.19,1.89.17,1.54,1.54,2.52-.7,3.89-2.8,5.19-1.47,0-2.91-4.14L113.3,141l1.51-3.58,0-1.44-2.56-2.07-2,.63-1.44,2.21,1.47,4.8-1.58,2.84-5.93,5-1.09-.63-1.37-3.58-.35-5.33,3.23-2.52.25-2.8L101.62,133l-2,.31-2,1.44-.14,2.63,0,3.16-4,5.08L89.18,149l-1.82-.49-.77-2.31-.14-9.68,3.86-2,1.12-2.21-1.23-2-2.52-.77-2.21,1.4-1,2.31.74,3.16-1.61,1.79-2.38,2L75,143.1l-2.74.42,0-4,2.17-6.91L76.31,130l4.14-1.23,1.33-2.56-.74-2L78.38,123,76,124.38,75.12,126l-.45,2.38-3.3,2.28-8.59,2.63-1.23-1.16,2.56-7.4,3.36-3.33,4-.56,1.61-2.77-.77-2.63-2.38-1.05-2.24,1.09-1.79,3.93-3.33,2.18-8,1.47.91-3.5L57.34,116l1.37-1.19L61,112.28l3.68-.31,1.47-1.54.49-1.37-.17-1.4-2-1.3-3.3,1-1.72.11-3.26-3.16-1.23-2,.77-.39,4.24.11,4.87-1.3,9.57-4.42,4.17-.81,4.24.88L86,98.26,86,96.19l1.33-1.72,4.21-.81.21-.53.14-3.08,2.28-2L95.84,82l3.44-5.33,0-1.61L97.1,70.42l.07-4.94,1-2.77L100.08,60l4.52-2,1.82-2.73,1.89-.88,2.31.63,1.47,2.35-.74,3.37L108.56,62l-3.22-1.3-.63.25-.46,3.58.91,3.08,2,1.19L114.52,67"/><polygon class="cls-2" points="117.55 66.93 117.95 67.41 111.12 73.51 110.71 73.04 117.55 66.93"/><path class="cls-2" d="M52.49,105.33l3.1.7,2.18,3.71-2.4,11.57-6.24,11.61-9.56,9.82H31.15l-1.35-1.83,10.74-9.69,8.6-14.05"/><path class="cls-2" d="M107.39,149.77l1.35-1,3.87-1,1.24,1.12,2.08,7.86.73,4.26-.56,8-3.2,13-2.36,5.72-3.81,4.94-4.66,3.2.34-2.24,1.35-2.19,2.58-4.27,2.3-6.79,2.08-9.15.73-6.51-1-7.3-2.92-5.22"/><path d="M86,162.29l.89-.88,2.77-.28,2.18-.79.34-.39,1.15.29.53-.74.8.37.61-.14,1.4-.38,3.35-6.51,1.56-3.8,1.15.56,1.37-.41,9.21-2.82.6,1.26-1.78.12-3.28.87-1.93,1.29.39,2.1-1.23.57-2.52,3.63.31,1.17,2.3-.53,1.24-2.51-.41-1.38.68-.17,2.51,4.59-.57,5.32,1.61,2.8-.93,7-1,4.46-1.19,4.68-2,5.66-3.19,5.36-.38-2.38,1.92-4.87-.92-8.7.17-8.11-1.89-.61-1.1,1.88.24,18.09,1,2.69.38,2.62-.74,3.2,1.28,3.3-.9,1.08-.87,2.11,1.43,3.86.79,0,4.93-3,1,2.56-2.37,2.93-3.88.82-2.38-3.5-.4-4.88,0-1.75-1.35-.85-.14-3.6-2.65-7.26-.73-7.57-.1-7.42.09-4.71-5.52.29-.48.87-1.4-.82-2.5.72-1.92-.06-2.17,1.23-3.89.92-3.63.48,1.44-1.63,7.63-1.5,2.63-1.6.84-4"/><rect x="106.72" y="152" width="0.94" height="0.9"/><rect x="101.93" y="190.6" width="0.92" height="2.51"/><polygon points="109 157.93 110.41 157.76 111.2 165.04 109.8 165.21 109 157.93"/><path d="M114.48,147.72c0,.25,1.94,4.32,1.94,4.32l1.24,6.26.15,8.45-1.94,12.12-.5,1.19.45.25.5-.35L122,167.89l2.28-9.79.5-5.27.89.35-.65,7.65-2.93,10.48-4.92,10.18-5.42,7.2-2.48,1.94-.2-1,3.13-5.71,3.68-14,.7-8.25L115,152.44l-1.54-4.72"/><path class="cls-2" d="M78,44l3.92.34,2.16,4.9-1.65,3.57L77,52.17l-.87-5.05"/><path class="cls-2" d="M90.21,39.11l3.22-1.57,1.28.45.46,1.66v1.56l-.92,2.63-3.18,2.86L85.52,48l-.4-1.54,2-.62,2.72-2.66"/><path class="cls-3" d="M51.84,41.31a2.11,2.11,0,1,1-2.11-2.24A2.18,2.18,0,0,1,51.84,41.31Z"/><path class="cls-4" d="M56.77,52.66a2.2,2.2,0,0,1-4.39,0h0a2.2,2.2,0,0,1,4.39,0Z"/><path class="cls-5" d="M67.78,69.63a2.39,2.39,0,0,1-4.76,0h0a2.39,2.39,0,0,1,4.76,0Z"/><path class="cls-6" d="M76.61,75.46a2.33,2.33,0,1,1-2.33-2.39A2.36,2.36,0,0,1,76.61,75.46Z"/><path class="cls-7" d="M85.92,78.4a2.38,2.38,0,1,1-4.73,0h0a2.38,2.38,0,1,1,4.73,0Z"/><path class="cls-2" d="M61.5,62.46a1.4,1.4,0,0,1-.7,1.81,1.41,1.41,0,0,1-1.94-.21,1.4,1.4,0,0,1,.7-1.81A1.41,1.41,0,0,1,61.5,62.46Z"/><path class="cls-2" d="M67.16,58.7a.83.83,0,1,1-.82-.95A.89.89,0,0,1,67.16,58.7Z"/><path class="cls-2" d="M55.51,67.76c.15.17-.1.58-.56.91s-.94.47-1.09.3l0,0c-.15-.17.1-.58.56-.91s.94-.47,1.09-.3Z"/><polygon class="cls-2" points="38.07 79.18 41.94 75.59 43.74 77.41 39.88 81 38.07 79.18"/><polygon class="cls-2" points="30.13 85.09 35.76 80.55 37.37 82.4 31.74 86.95 30.13 85.09"/><path class="cls-2" d="M28.36,88.15a1.09,1.09,0,0,1-1.56,1.38l0-.06a1.09,1.09,0,0,1,1.56-1.38Z"/><path class="cls-2" d="M27.78,147l1.49-.53,2.15,1.14,1.94,1.81,0,1.92-4.15,2.16-2.08-1.38.21-4.13"/><path class="cls-2" d="M44.34,85.07l4.75-1.5,1.1,1.63-1.38,18.24,2.8,3.25-3,11.54-3.41,1.54-8.41-3.17-.41-3.41,3.21-15.68,3.9-11.05"/><path class="cls-2" d="M89.09,162.66l13.14-3,3.41-1.46,2.48-.24.65,1.19.06,5.9-1,1-18.55,1.46-1.9-.34-.13-2.52"/><path class="cls-2" d="M133.63,52.58a8.77,8.77,0,0,1,2.31.49c.25.21,1.61,1.89,1.61,1.89l-.42,3.22.21,1.37,2.59,4.52,1,5.33-1,6.8-1.82,4.14-9.75-12,3.4-1.09L135,64l.74-3.61-.31-.39-3.37-.42-2-2.91,1.37-3.08"/><path d="M61.65,59.94c-2.42,1.88-5.06,5.24-7.92,6.35-1.14.43-3.13-2.74-4.18-.1-1.69-.48-3,.27-3,2a7.31,7.31,0,0,0-5.33,3.05c-1.06,1.62.75,3.4-.56,4.88-3,3.44-7.71,6.13-11.25,9.06-1.2,1-3.58,2.24-3.26,4.12.45,2.56,4.49-.81,5.32-1.52A72.52,72.52,0,0,1,39,81.9c.53-.32,1.78-1.71,2.41-1.58s2.09,3.65,2.24,4.34c.23,1.22-1.2,3.11-1.6,4.26-1.36,3.9-2.86,7.79-3.94,11.77-1.14,4.19-1.18,8.93-2.72,13-.79,2-2.44,3.7-3.42,5.68a57.73,57.73,0,0,0-3.86,11,36.15,36.15,0,0,0-.69,11c.06.64.81,1.06.8,1.62s-1.14.76-1.32,1.43c-.23.87.44,1.61.43,2.42-.06,3.12-1.39,6.77.49,9.74,1.41,2.1,7.1-.66,7.91-2.34.47-.88-.2-1.76-.54-2.53-1.12-2.32-2.93-3.61-4.94-5.12-.57-.44-1-2.46-.46-3.08s1.33-.12,1.88,0a21.3,21.3,0,0,0,4.67.09,42.21,42.21,0,0,0,14.41-2.57c1.4-.53,3.9-1.15,4.67-2.5-4.34.2-8.21,3.16-12.78,2.44.07,0,3.26-3.21,3.26-3.21,1.44-1.81,6.15-7.34,7.2-9.37.75-1.42,1.48-3.84,2.68-5,.7-.65,2.57-.38,3.5-.57a15.58,15.58,0,0,0,6.4-2.7c1.83-1.41.89-4.33,3.74-5a2.69,2.69,0,0,1,3.13,2.51,3.48,3.48,0,0,1-2.12,3c-1.12.51-2.28-.08-3.45.62-2.84,1.7-4.38,5.51-5.3,8.51-.26.85-.83,2.73-.18,3.53S66,133,67,132.62c2.48-.82,5.76-1.87,7.6-3.83.63-.67.52-1.7.81-2.53.76-2.15,2.62-3.38,4.74-2.2,1.66.93,1.35,2.81.22,4-1.54,1.64-3.76.61-5.07,2.44-1.92,2.68-2.65,6.55-3.29,9.73-.15.76-.54,2.89.19,3.45s1.68,0,2.31-.2a24.9,24.9,0,0,0,6-2.62A32.12,32.12,0,0,0,85.26,137c-2.44,4.6-4.47,9.46-6.63,14.2-.77,1.68-1.44,4.74-2.8,6s-4.87-2-6.19-2.48c-.66-.25-2-.56-2.44.19-1.22,1.91,3,4.54,4.06,5.62-3.34-.14-6.81-.94-10.15-.8-1,0-2.71,0-3.45.76s-.11,1.61.81,1.81a71.47,71.47,0,0,0,7.91,1.27v.2c-2.12.51-4.35-.06-6.49.32-.74.13-1.86.37-2.23,1.12-.48,1.08,1,1.67,1.83,1.77a67.75,67.75,0,0,0,8.32.24v.41A49,49,0,0,0,59.89,169c-.81.2-2.68.79-1.7,2,.69.85,2.11.76,3.12.72,2.78-.13,5.55-1.16,8.32-1.22-1.3,1.72-3.93,2.17-5.48,3.86-2.6,2.91,2.07,1.75,3.45,1-.76,2.24-1.91,4.33-2.84,6.49-.32.74-1,1.77-.91,2.64.1.69.71.41,1,0A23.37,23.37,0,0,0,66.39,181h.2l-.41,2c1.83-.3,3.1-4.86,3.65-6.49H70c-.2.76-1.95,3.68-1.1,4.22.5.34.9-.66,1-1,.67-1.54,1.48-3.08,2.09-4.67h.2l-1.42,4.46c2.34-.69,2.53-5.21,4.06-6.9l-2,5.48c1.62-.13,2.38-3,2.84-4.46h.2l-1,3.45c1.47-.24,2.07-2.37,2.44-3.65h.2l-.61,2.64c1.32-.2,1.66-1.71,2-2.84h.2c-.76,2.44.81,1.5,1.42-.2h.2v1.22c1.28-.2,1.62-1.54,2-2.64H83l-.2,1.83c1.12-.19,1.39-1.22,1.62-2.23h.2l-.2,1.42c1.3-.1,1.7-1.3,2-2.44h.2l-.2,1.83c1-.18,1.27-1.17,1.62-2h.2v1.22c1.22-.2,1.56-1.33,1.83-2.44h.2c-.47,2.7,1,.5,1.86.12a13.86,13.86,0,0,1,3-.32c0,8.44-.68,16.34,2,24.55.34,1,1,2,1.22,3,.38,1.51-.6,3.68,1.66,3.86-.14,3.38-.26,6.64,1.95,9.54,1.57,2,6-.34,6.91-2,1.74-3.1-1.59-5.88-4-7.58-.86-.59-3.09-1.94-2.57-3.34.32-.85,1.84-1.5,2.57-2a35.25,35.25,0,0,0,5.47-4.23c4.42-4.15,7.45-9.37,10.08-14.75,3.12-6.43,5.36-14.13,5.36-21.31,0-1.83,0-3.65-.06-5.48,0-.4,0-1.57-.71-1.42s-.44,1.51-.44,2a36,36,0,0,1-.43,6.15,59.05,59.05,0,0,1-3.63,14.81c-1.34,3.25-3.45,6.29-4.67,9.54h-.2a53.13,53.13,0,0,0,1.38-26.18,18.81,18.81,0,0,0-2.6-6.7c-.3-.5-.64-1.42-1.26-1.62s-2.1.46-2.71.72c-2,.9-4.14,1.67-6.17,2.53,1.82-1.56,6.33-4.58,6.27-7.3,0-1.63-1.6-2.84-1.36-4.67a2.87,2.87,0,0,1,2.8-2.33,2.53,2.53,0,0,1,1.27.61c2.73,2.06-.19,3.76-.2,6a15.71,15.71,0,0,0,2.16,6.64c.62,1.12,2.08,4.28,3.77,3.6.91-.37,1.39-1.7,1.78-2.51,1.08-2.24,2.52-4.94,2.1-7.52-.29-1.75-3.21-3.86-.22-5.28,1-.49,2,.46,2.17,1.42.21,1.24-.84,2.44-.88,3.65,0,3.08,2.77,5.56,5,7.25.73.57,5.08,3.41,5.63,1.43.25-.88-.65-2.24-1-3-1.26-2.56-2.59-5-3.61-7.71-1.3-3.42-2.8-6.7-3.44-10.35-.6-3.38-.21-7.1-1.68-10.31a12.87,12.87,0,0,0-4.71-5.27c-1.06-.69-2.54-1.15-3.36-2.14-.61-.73,0-1.74.1-2.56.15-2.18-.65-4.26.34-6.44.36-.78,1.84-1.38,2.52-1.88,1.37-1.1,2.47-2.3,4.26-2.54,3-.39,5.85,3.31,6.09,6a6.27,6.27,0,0,0-2.64.44c-5.18,2.3,0,11,4.83,6.69,1.87-1.69.36-3.38.6-5.31.1-.79.82-1.35,1.16-2a10.49,10.49,0,0,0,.85-4.67c-.23-3.08-2.63-5.81-2.51-8.93.15-3.84,5.11-7.38,6.78-10.75a20.56,20.56,0,0,0,.74-15.83c-.58-1.48-1.9-2.64-2.42-4-.28-.71.46-1.51.51-2.24.16-2.59-1.4-5-4.24-4.79s-5,3.84-3.3,6.41a4.62,4.62,0,0,0,4.92,1.83c0,5.7-6.44,8.79-11.57,8-2.94-.43-5.21-2.07-8.32-1.93-2.27.1-4.31.92-6.49,1.41-.72.13-1.85.61-2.54.2-2.76-1.54-1.56-4.82-1.31-7.1,1.62,1.14,3.53,2,5.48.88,2.89-1.7,2.3-6.68-1-7.49a4.29,4.29,0,0,0-4.33,1.54c-.44.6-.46,1.56-1,2-1.15.93-3,1-4.32,2.06-2.71,2.15-3.6,6.46-3.25,9.7a12.43,12.43,0,0,0,1.18,4.06c.46.92,1.39,1.68,1,2.81-.81,2.14-2.67,4-3.65,6.16-.78,1.62-.65,3.68-1.47,5.2-.4.75-1.34,1.1-1.88,1.75-.88,1.08-.71,2.49-.47,3.77-2.84-.67-6.42,1.37-5.68,4.46a15.32,15.32,0,0,0-4.26-2.41c-6.21-1.45-12.8,3.68-18.48,5.46a14.31,14.31,0,0,1-4.45.81c-1,0-2.49-.57-3.39,0-1.54,1,.75,2.39,1.16,3.15s-.89.53-1.22.38c-1.22-.57-4.46-2-5.07-3.19-.44-.92,0-2.94,0-4-.08-4.16,1-8.26,1-12.38,0-1.26.28-2.61.18-3.86-.06-.74-.5-1.47-.14-2.2.52-1,1.54-1.86,2.12-2.91.8-1.44,1.06-3.09,2.24-4.3s3.79-2.55,4.67-4.24c.4-.75-.34-1.45,0-2.14s1.57-1.18,2.11-1.56c1.83-1.26,3.53-2.64,5.27-4,.6-.47,1.51-1.91,2.34-1.09,1.6,1.58.59,7.46-1.58,8.25C67,68,65.84,66.36,64.35,67a2.75,2.75,0,0,0-1.62,2.64c-.06,3.93,6.39,3.28,5.28-.61,4.81-1.31,3.81-7.5,4.91-11.16.42-1.4,2-2.4,2.19-3.65.87-.26,1.67-1.48,2.48-.36s-.11,4.62,0,6c.17,3.5,1.22,6.7-.12,10.15-.3.77-.58,2-1.34,2.46-.54.57-2.25.24-3.33.74-2,1.43-1.55,6,2.45,4.59,2.16-.76,1-2.22,2-3.57S80,72,81,70.45c2.22-3.44,1.08-7.5.41-11.16-.2-1.07-.68-5.23,1.21-5.23.71,0,1,1.05,1.22,1.58a42.53,42.53,0,0,1,1.75,5.48c.9,4.13,1.4,9.87-1.2,13.6-.86,1.22-2.7.63-3.38,2.24a3,3,0,0,0,2,4.15A2.86,2.86,0,0,0,86.46,78c0-.71-.61-1.57-.25-2.23.57-1.06,1.65-1.74,2.21-2.84a17,17,0,0,0,.75-12.38c-1.08-3-6-6.49-5-9.74.83-2.69,4-2.21,6.11-3.33,4.79-2.52,5.92-6,4.27-10.64-.12-.81.88-1.6.39-2.44a1.1,1.1,0,0,0-1.87,0c-.91,1.29.75,2.2-.9,3.46-1,.79-2.36.5-3.52.92-.54.19-.92.79-1.47.89-.87.18-1.65-.5-2.48.18-1.33,1-.92,4-3.35,4.26-3.77.34-3.47-2.56-5.37-4.87a11,11,0,0,0-6-3.4,8.67,8.67,0,0,0-9.14,3c-1.21,1.69-1.76,5.81-4.46,5.71-1.05,0-3.72-.87-4.13-1.94-.54-1.31.35-2.6-1.16-3.61a2.61,2.61,0,0,0-4,1.42c-.37,1.62.33,3.41,2.15,3.61.74.08,1.51-.37,2.2,0,1.82,1,3.22,2.64,5.51,2.21,3-.56,3.86-4.57,6.09-6.34,2.75-2.17,7.83-.32,10.55,1,1,.52,2.57,1.34,2.77,2.55s-2.57.46-3.18.41c-3.37-.48-7.31.55-9.08,3.66-1.29,2.25-.33,4.67-3.5,5.62-.87.26-2.18.67-2.94-.05-1-.9-.57-2.49-2.14-3a2.77,2.77,0,0,0-3.81,2.1,2.82,2.82,0,0,0,.13,1.22c1,3.3,3.65.86,5.71,1.12s3.85.84,5.67-.6c2.29-1.81,1.83-4.58,5.08-5.73,1.35-.47,5.54-1.61,6.16.34.45,1.42-1.52,2.31-2.39,3-2,1.56-4,3.22-6,4.85C65.55,56.93,62.49,59.29,61.65,59.94Zm24-13.43c2-.2,4.41-2.57,5-4.46.24-.81-.19-2,.29-2.77s3-2,3.63-.86c2.14,3.64-2.41,8.14-5.64,8.53C87.9,47.06,86.07,47.89,85.66,46.51ZM49.54,39.28c2.47-.32,3.12,3.78.61,4.14C47.47,43.8,46.91,39.62,49.54,39.28Zm34.7,3.37c-.07.62.2,1.85,1.11,1.13.37-.3-1.45-2.14-.38-3.24.61-.61,1.58-.05,2.31-.16s1.42-.93,2.17-.64c.94.37.42,2.31.06,2.93-.91,1.63-3.19,4-5.28,3.58C82,45.83,82.81,43.51,84.24,42.65Zm2.84-1.22.81,1.42C89.22,42,88.51,40.76,87.08,41.43ZM85.26,43.6c-.07.07-.39.24-.52.19a6.43,6.43,0,0,1-.31-1.48A7.76,7.76,0,0,1,85.26,43.6Zm-5.68.83c2.37-.56,4.44,4.33,3.71,6.14-.63,1.53-1.64.3-2.69.56-.61.15-.81.87-1.43,1a.65.65,0,0,1-.85-.53c0-.86,1.33-1.12,1-2s-2.75-.29-2.54-1.43c.24-1.34,1.93,0,2.42-.87S78,44.81,79.58,44.43ZM54,50.84c2.61-.47,3.69,3.28.81,3.74C52.33,55,51.42,51.32,54,50.84Zm80,98.76c-3.86-.74-8.15-3.93-9.17-7.91-.57-2.23,2.56-5.15-1-6.59-1.72-.71-3.13,1.72-3.13,3.14s1.23,2.14,1.59,3.45c.56,2.05-1.3,5.14-2.2,6.9-.32.61-.74,1.74-1.54,1.84-1.22.19-2.68-3.16-3.07-4.07-.61-1.41-1.68-3.5-1.53-5.07.09-.91.82-1.58,1.05-2.44a4,4,0,0,0-2.33-5c-1.5-.55-3.45.79-3.9,2.2-.77,2.26,1.3,3.77,1,5.68-.42,2.84-5.08,5.57-7.06,7.31h-.2c-1.78-1.58-1.62-3.86-1.91-6.09-.12-.81-.39-2.19.09-2.92,1.16-1.74,3.65-2,3.15-4.79-.54-2.95-4.17-3.33-5.91-1.21s.11,4.19-.83,6.28c-1.52,3.39-5.13,6-7.77,8.32,0,0-1,0-1.23-.21a3.82,3.82,0,0,1-.83-1.24,12.61,12.61,0,0,1-.52-5c.14-1.49-.35-3.86.27-5.22.53-1.15,2.92-1.47,3.83-2.43,2.06-2.17-.52-5.69-3.14-5.29a4.34,4.34,0,0,0-3.41,4.42c.08.93.81,2.07.28,2.94-2.24,3.69-8.09,5.84-12.09,6.6,0-3.65,1.16-9.9,4-12.52,1.49-1.39,3.79-.19,5.17-2.5a3.61,3.61,0,0,0-3-5.43c-1.89-.12-3.38,1.78-3.86,3.4-.15.61,0,1.42-.34,1.9-1.55,2-4.93,2.85-7.17,3.7-.85.32-4.18,1.46-4.87.57s.59-3.08.92-3.93c.91-2.34,2.16-5.19,4.56-6.43,1.78-.92,3.57.19,4.92-1.89,1.77-2.75-.5-6.84-3.91-5.67-2.64.91-2,3.38-3.54,5-2.45,2.56-7,2.94-10.26,2.94.38-3,3.51-7.81,6.12-9.41.84-.52,1.72,0,2.6-.22a4.12,4.12,0,0,0,3-4.56c-.46-1.79-3-2.44-4.58-1.83-.62.25-1.15,1-1.83,1s-1.22-.77-1.64-1.17c-1.14-1.07-3-2.06-3.23-3.71a24.05,24.05,0,0,0,8.5-1c4.56-1.67,9.11-4.83,14-5.44,3.34-.41,5.21,2.6,8.32,2.6a6.67,6.67,0,0,1,0-2.22c.82-2.29,4.27-1.16,5.4-2.65.56-.78.16-1.81.5-2.64.43-1.1,1.65-1.47,2.17-2.44.76-1.47.7-3.35,1.38-4.87,1-2.36,3.18-4.67,3.88-7.1.46-1.62-1.24-3.53-1.72-5.07a11.29,11.29,0,0,1,.95-9.33c1.49-2.6,3.59-2.41,5.74-3.8,1.68-1.07,2.69-4.41,5.48-3a3.33,3.33,0,0,1,0,5.73c-1.9.94-3-.87-4.67-.54-2.91.52-1.22,6.32-.07,7.65.85,1,1.95.89,3.12.67a55.25,55.25,0,0,1,7.31-1.59c2.44-.2,4.26,1.39,6.49,1.9,4.7,1.14,12.32-.92,13.6-6.2.2-.86.61-2.23-.09-3s-1.55-.4-2.35-.56a3.21,3.21,0,0,1-2.57-3.58,3.34,3.34,0,0,1,5.94-1.42c1.16,1.68-.36,3.2,0,4.87.2.81,1.11,1.48,1.52,2.23A17.54,17.54,0,0,1,140.16,67a19.3,19.3,0,0,1-3.37,14.41c-1.64,2.39-4.52,4.47-5,7.51-.54,3.46,2,6.39,2.34,9.74a10.13,10.13,0,0,1-.63,4.46c-.3.67-1,1.07-1.11,1.83-.32,2,1.12,4-1.09,5.56s-5.79-.89-5.16-3.53a3.38,3.38,0,0,1,1.94-2.39c.77-.25,1.94-.13,2.43-.92s-.15-2.38-.63-3.19c-1.43-2.35-3.59-4.09-6.47-3.7-1.28.17-2.26,1.17-3.25,1.92s-2.54,1.49-3.33,2.47c-1.5,1.86-.74,4.79-.74,6.82,0,1-.74,2.13-.46,3,.41,1.33,2.82,2.16,3.92,2.84a12.59,12.59,0,0,1,4.8,5.28c2,4,1.25,9.48,2.49,13.8a73.46,73.46,0,0,0,4.48,11.16A35.46,35.46,0,0,1,134,149.59ZM66.18,57.82c1-.3,1.33,1.48.38,1.73S65.15,58.13,66.18,57.82Zm-6.7,4.11-.2.2Zm.81.3c2-.37,1.59,2-.2,2.27C58.13,64.81,58.87,62.5,60.3,62.23Zm-9.48,4.31c1.75-.62,2.41,4.73,1.12,4.95C50.82,71.68,49.54,67,50.82,66.54Zm-1.08,7c-1.62-.27-2.77-4.2-2.08-5.63.8-1.66,1.82.88,1.88,1.57s.17,1.08.19,1.62C49.75,71.87,49.75,72.69,49.75,73.5Zm8.93-6.09c-.55,1.83-2.84,2.58-4,3.89-1.36,1.5-1.74,3.93-3.1,5.59-.73.95-2.53,1.4-3.06,2.2-.39.57.83.82,1.11,1.11a2.08,2.08,0,0,1-.2,2.52c-.75.76-3.94,2.14-4.9,1.41s-1-2-1.37-2.92a4.33,4.33,0,0,1-.62-2c.09-.69,1.62-2.33,2.33-2.35s1,.53,1.61.3c1.07-.38.82-1.62,1.48-2.33,1-1.13,2.26-.17,2.59-2.36C54.1,72.9,55,67.81,58.68,67.41Zm5.88.29c2.84-.82,4.38,3,1.62,3.84C63.69,72.29,62.07,68.42,64.56,67.7Zm-9.13.12c-.15.84-.62.94-1.42,1C54.16,67.94,54.58,67.84,55.43,67.81ZM45.16,69.39c.65-.19,1,.59,1.13,1.07.3,1,1.48,4.89.17,5.43-.65.26-1.09-.47-1.29-1C44.78,74,43.64,69.84,45.16,69.39Zm-1.29,7.36c-1.42-.47-2.69-3.65-1.83-5s1.62.39,1.77,1.16c.06.54.06,1.08.15,1.62A6.73,6.73,0,0,1,43.86,76.74ZM123.41,80a10.59,10.59,0,0,0-2.73-1.23,11.81,11.81,0,0,0-3.16-.19c.15-1.18.85-2.68.41-3.86-1.44-4.11-8.8-1.42-11.16,0-5.71,3.36-9.54,10.51-8.61,17.09a10.64,10.64,0,0,0,.23,2.64c1.58,4.06,7.11,3.66,10.61,3.28C116.77,96.83,125.77,88.15,123.41,80Zm-49.51-6.6c3-.75,3.11,3.6.78,4.11C71.66,78.16,71,74.13,73.89,73.39Zm35.31,8.83L107,84.45c2.11-.36,4.84-1.62,5.77-3.65s-1-5.68-3.33-5.88c.53,1.91,4.39,5.48.81,6.7,0-2.51-.41-5.2-3.45-5.28.89-3,8.52-4,10.4-1.55,1,1.25-.94,3.09.24,4.06,1.69,1.4,5-.37,5.88,2.77.78,2.71-1.15,5.68-2.67,7.71-3.94,5.31-13.3,10.83-19.94,6.7-1.66-1.07-2-3.25-2-5.07a16.85,16.85,0,0,1,3.1-9.94c.69-1.08,1.77-3.55,3.18-3.82.62-.13.91,1.18,1.09,1.59C106.69,80.34,107.48,81.71,109.2,82.22ZM41.87,76.13c.72-.13,1.17.86,1,1.43-.27.93-2,2.76-3,2.83-.64,0-1.45-.91-1.13-1.52A8.9,8.9,0,0,1,41.87,76.13Zm41,.12c2.68-1,4.11,3,1.81,4C81.88,81.37,80.32,77.24,82.82,76.26Zm26.65,5.35c-.14.11-.28,0-.52-.09a4.78,4.78,0,0,1-1.1-1c-.3-.34-.95-1.28-.95-1.28a1.28,1.28,0,0,0,1.2-.33,1.8,1.8,0,0,0,.62-1.15,4.52,4.52,0,0,1,.66,1.41,7.37,7.37,0,0,1,.36,1.9A.89.89,0,0,1,109.47,81.61Zm-2.78-4.52a.66.66,0,0,1,.9-.17,7.45,7.45,0,0,1,.78.4,1.41,1.41,0,0,0-1,.44,1.58,1.58,0,0,0-.59.95,4,4,0,0,1-.28-.82C106.39,77.5,106.26,77.52,106.69,77.09Zm-75,9.6c-2.32-1.47,1.94-4.77,3.65-5.18,2.2-.5.65,1.93,0,2.45q-.69.58-1.42,1.12C33.19,85.63,32.41,86.13,31.69,86.69Zm83.4-3.25,3,1.63,2.44,1.82C120.42,84.1,117.6,82.7,115.09,83.44Zm-14.41,3.65,2.44-3.25A2.58,2.58,0,0,0,100.68,87.09ZM47.31,84.32c3.17-.53,2,4.41,1.79,6.43-.37,3.19-.57,6.34-.8,9.54a23.6,23.6,0,0,0-.49,3.45c.14,1.83,1.63,1.69,2.21,2.9s0,3.06-.17,4.2c-.34,1.89-1.4,7.06-3.59,7.65a5.32,5.32,0,0,1-2.82-.46c-2.24-.64-5.88-1.08-6.23-3.94-.21-1.69.48-3.79.72-5.48C38.76,103,40.46,97.44,42,92,42.85,88.94,43.65,84.93,47.31,84.32Zm66.15,1.35h-1c.19,2.66,3.74,4.32,6.09,4.67,0-1.32-.06-3.61-1.07-4.58S113.79,83.69,113.47,85.67Zm-2.84,6.49L109.2,94.4c3.62-.56,2.23-3.84,1.22-6.09-1,1-.09,1.75.2,2.84-2-.3-4-2.43-5.28-3.86-.46-.53-1-1.9-1.83-1.9-2.29,0-1.88,4.61-.91,5.71C104.3,93,108.39,92.58,110.62,92.17Zm-3-6.7c-.2,1.35,1.22,2.1,2.44,2.23C109.91,86.38,108.72,85.87,107.58,85.47Zm-4.06.81,4.67,5.28C105.61,91.56,101.32,89.53,103.52,86.28Zm10.33-.46a1.53,1.53,0,0,1,1.15-.77,1.64,1.64,0,0,1,1,.41,2.63,2.63,0,0,0-1.16.71,3.26,3.26,0,0,0-.6,1.52C113.68,87.58,113.58,86.39,113.85,85.82Zm2.25,1.58a2.09,2.09,0,0,0,.55-1.38,3,3,0,0,1,.93,1.3c.31.85.57,1.85.27,2.15s-1.34-.19-2-.48a5.2,5.2,0,0,1-1.17-.89A3.25,3.25,0,0,0,116.1,87.4ZM27.63,88c1.34-.07.88,1.5-.2,1.58S26.59,88.11,27.63,88Zm72,13.68c-.48.45.35,1,.66,1.24.86.48,2.84,1.4,3.72.43S100.24,101.12,99.61,101.71Zm-9.08,1.21c1.22,5.24,7.29,8,12,9.08,1.83.45,4.94.78,6.29-.76-4.15-1.07-7.94-1-11.77-3.37C95,106.64,92.87,103.12,90.53,102.92ZM57.24,112c-2.94,11.65-7.94,21.2-15.12,27.32a11.6,11.6,0,0,1-8,2.93c-.64,0-2.44.31-2.71-.47s6.53-6.59,8.68-8.87a50,50,0,0,0,10.27-17c1.22-3.29,2.42-6.6,2.44-10.15A6.33,6.33,0,0,1,57.24,112Zm.21,3.26,1-6.09-2-3.25c1.22.33,2.2,1.68,3.45,1.83,2,.22,4.06-2.22,6.17-.05a2,2,0,0,1,0,2.28c-1.61,3-3.74.87-5.77,2.27C59.15,113.09,58.75,114.89,57.46,115.3ZM32.3,136.81c-1.13-.36,2.35-11.3,3-13.16.54-1.45,1.42-3.95,2.56-5,.61-.59,2-.4,2.19.55.21,1.32-1.35,3-1.82,4.25a92.58,92.58,0,0,0-3.56,11.36C34.42,135.89,33.43,137.17,32.3,136.81ZM87.49,130c2.09-.41,4,1.19,3,3.38-.54,1.22-2.76,2.45-4.06,2.7-1.11.22-1.34-1.49-1.44-2.3A3.22,3.22,0,0,1,87.49,130Zm2.23,30.78c-.41-1.42,1.55-4.34,2.19-5.68,2.19-4.64,4.71-9.38,6.48-14.2.59-1.62-1.16-3.43-.59-5.28a3.14,3.14,0,0,1,4.25-2c1.68.92,1.35,3,.22,4.2-.81.84-2.1,1.11-2.8,2.07-1.22,1.67-1.93,4-2.79,5.85C94.38,150.71,92.36,156,89.72,160.75Zm-3.45-23.13-2.78,6.9-6.15,13.8h-.2C77.41,155.28,83.8,140.68,86.27,137.62Zm0,2.64s-4.95,16-7.71,17.86l5-11.57Zm13.6,1.22L97.72,147l-6.17,13.39h-.2c.71-4,3.52-8.29,5.21-12C97.57,146.18,98.32,143.35,99.87,141.48Zm-3.45,1.42L88.1,161.16h-.2c-.2-1.5,1.21-3.53,1.88-4.87,1.52-3,2.87-6.24,4.36-9.33C94.8,145.59,95.24,143.91,96.42,142.9Zm3.65,1.62c-.41,3.72-3.38,8.17-4.93,11.57-.55,1.22-1,3.11-2.17,3.86l4.51-10.15Zm-13.8.41-3.57,8.32-2.52,5.28c-.2-1.56,1.15-3.7,1.83-5.07,1.42-2.74,2.64-5.67,3.86-8.52Zm14,1.22c.32,1.77-.54,3.09-1.25,4.67-1.24,2.78-3.3,5.94-3.83,8.93,1.76,0,2.23-1.15,2.9-2.64,1.1-2.52,3-5.18,3.39-7.91h-.2l-4.67,10.15h-.2c.5-3.35,3-7.63,4.67-10.55,0,0,1.26,1,1.62,1a18.64,18.64,0,0,0,4.38-1.47c.36-.12,7-2.19,6.12-.91-.25.4-1.34.09-1.78.34,0,0-5.2.87-4.83,2.64.56,2.72,2.94,5.1,3.61,7.91,1.75,7.1-.1,14.43-1.76,21.31a41.24,41.24,0,0,1-3.58,9.54c-.85,1.58-2.61,3.36-3,5.07a8.29,8.29,0,0,0-.39,2.84c.2.84,1,1.67.83,2.6-.28,1.74-1.76,2.36-1.3,4.5a7.68,7.68,0,0,0,.47,1.42c1.25,3,2.84.27,5.1-.49.5-.17,1.27-.52,1.76-.17,1.42,1-.81,3.5-1.77,3.91s-2.47,1.08-3.36.69c-1.71-.75-2.56-4.51-2.68-6.17-.07-1,.42-2.08,0-3-.28-.7-1.1-.95-1.35-1.63-.36-.85.15-1.77-.08-2.64-.48-1.8-1.5-3.45-2-5.28a62.7,62.7,0,0,1-1.68-11.16,48.9,48.9,0,0,1,.17-7.51c.09-1,.47-2.23.08-3.23-.6-1.49-3.53-.82-4.55-.22h-.2c-.85-.34-1.35-.07-1.62.81h-.2c-.61-1.11-1.92-.79-2.84-.2H84.65c-1-.33-2.84.61-3.45,1.42a1.46,1.46,0,0,0-1.83.41l-4.87.81c.86-1.51,3.53-1.55,5.07-1.83s4.94-1.11,5.88-2.32,1.1-4.15.81-5.59l.61-.61c1.35.21,4.31-.45,5.28-1.42l1.22.41.41-.81H94l.81.41c0-2,1.34-4.05,2.2-5.88A85.18,85.18,0,0,0,100.28,146.14Zm-7.1.2-2.26,5.28-4.64,10.15h-.2l4.38-9.94Zm-64.87.73c1.54-.73,5.21,1.83,4.92,3.53-.22,1.31-1.29.67-2,1.16-.41.27-.58.81-1,1.07C27.52,154.29,26.36,148,28.3,147.08Zm58.17.08c-.15,2.88-2.52,6.33-3.74,8.93-.45,1-.8,2.28-1.74,2.84A40.82,40.82,0,0,1,86.48,147.16Zm16,47.48c.47-2.57,3-5,4-7.51a71.23,71.23,0,0,0,5.07-20.5,22.38,22.38,0,0,0-1-9.54c-.78-2-2.89-4.62-3.08-6.69-.14-1.47,3.65-2.22,4.74-2.13,1.37.12,1.68,1.87,2,2.94a49.27,49.27,0,0,1,1.91,9.54c.83,7.91-4.09,22.53-4.65,23.95S106.82,192.63,102.51,194.64Zm11.57-46.47c3.93,5.52,4,15.49,3,21.92-.4,2.37-.74,4.77-1.33,7.1-.16.76-.81,2.24-.48,3,.4.92,1.49-.35,1.77-.75a34.43,34.43,0,0,0,2.72-5.48A51,51,0,0,0,125,154.06h.2c0,9.37-3.68,19.56-8.68,27.39-1.9,3-3.8,6-6.74,8.12,4.22-7.69,8.32-23.14,6.67-31.77C116,155.29,114.07,148.17,114.07,148.17Zm-23.54.61c-.87,4.08-3.69,8.4-5.48,12.18h-.2l4-8.93Zm13.8,0v.2h-.61Zm-16.84.2-4.87,10.55,1,.41,3.58-7.71,1.7-3-5.07,11.16-1.28-1.06,1.68-4L87.08,149Zm18.87,3.26c-1.62.22-4.67,5.61-2,5.43a3.25,3.25,0,0,0,3.2-2.8C107.65,154.07,107.64,152.07,106.36,152.24Zm.2.6c1.21,2.26-.41,4-2.64,4.26A6,6,0,0,1,106.57,152.84ZM86.27,163.39v.2c-.85,1-.5,3.17-1.34,3.86-2.62,2.1-7.33,2-10.43,3.15-3.36,1.25-6.11,4.2-9.74,4.76,1.17-2.23,5.73-2.2,6.34-4.86.29-1.28-2-1.06-2.69-1-3.3.37-6.37,1.61-9.74,1v-.2l11.16-2.44c-.71-2.23-2.51-1.49-4.27-1.42a28.14,28.14,0,0,1-7.5-.61v-.2c2.36-1,5.19-.81,7.71-.81.81,0,2.71.22,3.25-.52.77-1-1.77-1.28-2.23-1.42a29.4,29.4,0,0,0-8.52-1.3c.4-1.13,1.66-.69,2.64-.76,2.83-.21,5.36.56,8.12.76.92,0,3.31.34,3.44-1,.08-.79-.88-1.31-1.41-1.69-1.22-.84-2.93-1.82-3-3.38l7.1,3.45,6.9,1.62Zm15-3.9a89.05,89.05,0,0,1-9.13,2.27c-1.22.25-2.77.05-3.82.75A4.36,4.36,0,0,0,87,167.2c.63,1.35,3.78.51,4.92.45,4.06-.2,8.32-.34,12.38-.87,1.19-.15,3.25.06,4.17-.84,1.3-1.29.72-6.69-.09-8.18C107.86,156.74,102.82,159,101.29,159.5Zm6.08-1.25c.75.07,1,.88,1,1.49.12,1.32.68,4.77-.47,5.71s-3.16.44-4.4.6a113,113,0,0,1-11.55.79c-1.16,0-2.9.61-4,.08-1.52-.75.34-3.57,1.36-3.92,3.71-1.3,8-1.41,11.77-2.63C102.89,159.8,105.46,158.12,107.37,158.25Zm-5.47,9.52c-1.53.45-1.36,3.05-1.42,4.35-.2,4.59,0,9.22.2,13.8,0,.85.12,5.33,1.5,4.9s1.95-3.18,2.27-4.29c.55-2-.32-4.65-.49-6.7-.25-2.6,0-5.28,0-7.91C103.93,170.35,104.53,167,101.9,167.77Zm.41,22.41c-1-.61-.82-2.94-1-4.06a108.71,108.71,0,0,1-.26-12.78c0-1-.23-4.39.87-4.87,2.17-1,1.12,4.14,1.24,5.07.31,2.44,0,4.88.12,7.31.12,1.5.86,3.17.7,4.67C103.83,187.17,102.62,188.58,102.3,190.18Zm-15-21.1-.41,1.22h-.2Zm1.42,0-.2,1h-.2Zm-4.67.41-.41,1.22h-.2Zm1.42,0-.61,1.83h-.2Zm-3,.81v.2l-.61.81Zm-2,.61-1,2.44h-.2Zm3,0-.2.81H83Zm-4.87.61-.81,2h-.2Zm3,0L81,173.13h-.2Zm-4.67.2-.61,1.62h-.2l.41-1.62Zm-1.83.41v.61h-.2Zm-1.83.81-.81,2.23h-.2Zm2.84.61-.2.2Zm-4.67.2-1.22,2.84H70Zm-1.83.81L66.79,181h-.2C66.84,179.35,68.14,175.47,69.63,174.55Zm33.28,32.06c-1.22-1.09-2.44-6.81.61-6.27.77.13,4.1,2.93,3.62,3.71-.28.45-1.33.54-1.79.74A6.64,6.64,0,0,0,102.91,206.62Z"/></g><g id="heart"><path class="cls-2" d="M41.58,168.25c-1.94,4.29,2,9.86,2,14,3.14-2.66,9.92-3.3,11.91-7.57a3.84,3.84,0,1,0-7-3.2,3.84,3.84,0,1,0-7-3.2Z"/></g><g id="diamond"><path class="cls-2" d="M58.68,194.93l-7.43,1.91a4.81,4.81,0,0,0,2-1.62,20.34,20.34,0,0,0,3.05-5.07,5.18,5.18,0,0,0,.42-2.91m-5.46,9.59a5.28,5.28,0,0,1,3.16.63,21.1,21.1,0,0,1,4.84,3.26,4.68,4.68,0,0,1,1.41,1.89l-2-7.68m2,7.68a5.78,5.78,0,0,1,.61-3.38,20.87,20.87,0,0,1,3.1-4.89A4.19,4.19,0,0,1,66.11,193l-7.43,1.91M66.11,193A5.28,5.28,0,0,1,63,192.4a21.13,21.13,0,0,1-4.84-3.26,4.69,4.69,0,0,1-1.41-1.89l2,7.68"/></g><g id="club"><path d="M86.8,194.34a3.38,3.38,0,1,1-1.37-4.51A3.33,3.33,0,0,1,86.8,194.34Z"/><path d="M87.61,201.89a3.38,3.38,0,1,1-1.37-4.51A3.33,3.33,0,0,1,87.61,201.89Z"/><path d="M80,197.71A3.21,3.21,0,0,1,78.67,199a3.41,3.41,0,0,1-3.19-.08A3.28,3.28,0,1,1,80,197.71Z"/><path d="M81.21,205.65c-1.46-.81-1.57-2.43-1.31-3.84a10.56,10.56,0,0,1,.88-2.62l-.75-.42s-2.77,4.67-5.7,3.06Z"/><path d="M80.68,193.7a7.42,7.42,0,0,1-.64,5.08l.74.42a7.48,7.48,0,0,1,3.93-3.27"/><path d="M78.05,199.22a7.42,7.42,0,0,1,5.08.64l.41-.74a7.48,7.48,0,0,1-3.27-3.93"/><path d="M81.38,201.08a7.42,7.42,0,0,0-3.23-4l.41-.74a7.48,7.48,0,0,0,5.06.69"/></g><g id="spade"><path d="M63.25,156.23c-1.6.46-2.94-1-3.88-2.59a17.75,17.75,0,0,1-1.47-3.28l-.82.23s1.82,6.89-1.39,7.82Z"/><path d="M64,148.59c-1-3.33-6.67-4.31-8.9-6.52-.71,3.07-5,6.93-4.07,10.26a3.4,3.4,0,0,0,6.48-1.87A3.4,3.4,0,0,0,64,148.59Z"/></g></g><g id="joker_text" data-name="joker text"><text class="cls-8" transform="translate(9.28 27.11) scale(0.44 1)">JOKER</text><text class="cls-8" transform="translate(159.73 217.44) rotate(180) scale(0.44 1)">JOKER</text></g></g></g></g></svg>